<?xml version="1.0" encoding="UTF-8"?>
<svg width="249px" height="144px" viewBox="0 0 249 144" version="1.1" xmlns="http://www.w3.org/2000/svg" xmlns:xlink="http://www.w3.org/1999/xlink">
    <!-- Generator: Sketch 43.1 (39012) - http://www.bohemiancoding.com/sketch -->
    <title>Group</title>
    <desc>Created with Sketch.</desc>
    <defs></defs>
    <g id="Page-1" stroke="none" stroke-width="1" fill="none" fill-rule="evenodd">
        <g id="iPhone-7" transform="translate(-59.000000, -412.000000)">
            <g id="Group" transform="translate(59.000000, 412.000000)">
                <path d="M49.46,91.3229026 L47.955,91.3229026 L40.535,68.9229026 L33.08,91.3229026 L31.54,91.3229026 L23.28,66.8579026 L24.925,66.8579026 L32.345,89.5729026 L39.765,66.8579026 L41.305,66.8579026 L48.76,89.5729026 L56.145,66.8579026 L57.72,66.8579026 L49.46,91.3229026 Z M66.495,73.0529026 C69.1316798,73.0529026 71.214159,73.9337272 72.7425,75.6954026 C74.270841,77.4570781 75.0116669,79.7612217 74.965,82.6079026 L59.04,82.6079026 C59.1333338,84.8245804 59.879993,86.6153958 61.28,87.9804026 C62.680007,89.3454095 64.441656,90.0279026 66.565,90.0279026 C69.1316795,90.0279026 71.1849923,89.187911 72.725,87.5079026 L73.565,88.4529026 C71.7683243,90.389579 69.4116812,91.3579026 66.495,91.3579026 C63.904987,91.3579026 61.7758417,90.5004112 60.1075,88.7854026 C58.4391583,87.0703941 57.605,84.8829159 57.605,82.2229026 C57.605,79.5395559 58.4449916,77.3404112 60.125,75.6254026 C61.8050084,73.9103941 63.9283205,73.0529026 66.495,73.0529026 Z M59.075,81.3129026 L73.635,81.3129026 C73.4949993,79.2128921 72.7833397,77.5329089 71.5,76.2729026 C70.2166602,75.0128963 68.5483436,74.3829026 66.495,74.3829026 C64.4416564,74.3829026 62.7383401,75.0187296 61.385,76.2904026 C60.0316599,77.5620757 59.2616676,79.2362256 59.075,81.3129026 Z M81.325,91.3229026 L79.855,91.3229026 L79.855,65.3529026 L81.325,65.3529026 L81.325,91.3229026 Z M95.245,73.0529026 C97.8816798,73.0529026 100.051658,73.9045608 101.755,75.6079026 L100.915,76.6579026 C99.3283254,75.1878953 97.4500108,74.4529026 95.28,74.4529026 C93.0866557,74.4529026 91.2841737,75.1762287 89.8725,76.6229026 C88.4608263,78.0695765 87.755,79.924558 87.755,82.1879026 C87.755,84.4979142 88.4608263,86.3762287 89.8725,87.8229026 C91.2841737,89.2695765 93.0866557,89.9929026 95.28,89.9929026 C97.8000126,89.9929026 99.7833261,89.1412445 101.23,87.4379026 L102.105,88.3829026 C100.424992,90.3662459 98.1383478,91.3579026 95.245,91.3579026 C92.6549871,91.3579026 90.5200084,90.5004112 88.84,88.7854026 C87.1599916,87.0703941 86.32,84.8829159 86.32,82.2229026 C86.32,79.5628893 87.1599916,77.3695779 88.84,75.6429026 C90.5200084,73.9162273 92.6549871,73.0529026 95.245,73.0529026 Z M113.4,73.0529026 C116.013346,73.0529026 118.165825,73.9103941 119.8575,75.6254026 C121.549175,77.3404112 122.395,79.5278893 122.395,82.1879026 C122.395,84.8712494 121.549175,87.0703941 119.8575,88.7854026 C118.165825,90.5004112 116.013346,91.3579026 113.4,91.3579026 C110.786654,91.3579026 108.634175,90.5004112 106.9425,88.7854026 C105.250825,87.0703941 104.405,84.8712494 104.405,82.1879026 C104.405,79.5278893 105.256658,77.3404112 106.96,75.6254026 C108.663342,73.9103941 110.809987,73.0529026 113.4,73.0529026 Z M113.4,74.4529026 C111.206656,74.4529026 109.39834,75.1762287 107.975,76.6229026 C106.55166,78.0695765 105.84,79.9362245 105.84,82.2229026 C105.84,84.5095807 106.55166,86.3762287 107.975,87.8229026 C109.39834,89.2695765 111.206656,89.9929026 113.4,89.9929026 C115.616678,89.9929026 117.430826,89.2695765 118.8425,87.8229026 C120.254174,86.3762287 120.96,84.5095807 120.96,82.2229026 C120.96,79.9362245 120.254174,78.0695765 118.8425,76.6229026 C117.430826,75.1762287 115.616678,74.4529026 113.4,74.4529026 Z M150.175,73.0529026 C152.345011,73.0529026 154.042494,73.6828963 155.2675,74.9429026 C156.492506,76.2029089 157.105,77.9528914 157.105,80.1929026 L157.105,91.3229026 L155.67,91.3229026 L155.67,80.4729026 C155.67,78.6062266 155.156672,77.1479079 154.13,76.0979026 C153.103328,75.0478974 151.668343,74.5229026 149.825,74.5229026 C147.654989,74.5695695 145.957506,75.2928956 144.7325,76.6929026 C143.507494,78.0929096 142.895,79.9945573 142.895,82.3979026 L142.895,91.3229026 L141.46,91.3229026 L141.46,80.4729026 C141.46,78.6062266 140.940839,77.1479079 139.9025,76.0979026 C138.864161,75.0478974 137.435009,74.5229026 135.615,74.5229026 C133.444989,74.5695695 131.741673,75.2987289 130.505,76.7104026 C129.268327,78.1220764 128.65,80.0178907 128.65,82.3979026 L128.65,91.3229026 L127.215,91.3229026 L127.215,73.0879026 L128.65,73.0879026 L128.65,77.8829026 C129.863339,74.7328869 132.313315,73.122903 136,73.0529026 C137.820009,73.0529026 139.313327,73.5137314 140.48,74.4354026 C141.646672,75.3570739 142.393332,76.6578942 142.72,78.3379026 C143.863339,74.884552 146.348314,73.122903 150.175,73.0529026 Z M170.22,73.0529026 C172.85668,73.0529026 174.939159,73.9337272 176.4675,75.6954026 C177.995841,77.4570781 178.736667,79.7612217 178.69,82.6079026 L162.765,82.6079026 C162.858334,84.8245804 163.604993,86.6153958 165.005,87.9804026 C166.405007,89.3454095 168.166656,90.0279026 170.29,90.0279026 C172.856679,90.0279026 174.909992,89.187911 176.45,87.5079026 L177.29,88.4529026 C175.493324,90.389579 173.136681,91.3579026 170.22,91.3579026 C167.629987,91.3579026 165.500842,90.5004112 163.8325,88.7854026 C162.164158,87.0703941 161.33,84.8829159 161.33,82.2229026 C161.33,79.5395559 162.169992,77.3404112 163.85,75.6254026 C165.530008,73.9103941 167.65332,73.0529026 170.22,73.0529026 Z M162.8,81.3129026 L177.36,81.3129026 C177.219999,79.2128921 176.50834,77.5329089 175.225,76.2729026 C173.94166,75.0128963 172.273344,74.3829026 170.22,74.3829026 C168.166656,74.3829026 166.46334,75.0187296 165.11,76.2904026 C163.75666,77.5620757 162.986668,79.2362256 162.8,81.3129026 Z M201.105,88.8729026 L201.665,90.0629026 C200.428327,90.9262403 199.156673,91.3579026 197.85,91.3579026 C196.543327,91.3812361 195.528337,90.9612403 194.805,90.0979026 C194.081663,89.234565 193.72,87.962911 193.72,86.2829026 L193.72,74.8029026 L191.06,74.8029026 L191.06,73.5429026 L193.72,73.5429026 L193.72,69.0279026 L195.12,69.0279026 L195.12,73.5429026 L201.315,73.5429026 L201.315,74.8029026 L195.12,74.8029026 L195.12,86.1079026 C195.12,87.3912424 195.364998,88.3537328 195.855,88.9954026 C196.345002,89.6370725 197.068329,89.9462361 198.025,89.9229026 C199.075005,89.9229026 200.101662,89.5729061 201.105,88.8729026 Z M212.645,73.0529026 C215.258346,73.0529026 217.410825,73.9103941 219.1025,75.6254026 C220.794175,77.3404112 221.64,79.5278893 221.64,82.1879026 C221.64,84.8712494 220.794175,87.0703941 219.1025,88.7854026 C217.410825,90.5004112 215.258346,91.3579026 212.645,91.3579026 C210.031654,91.3579026 207.879175,90.5004112 206.1875,88.7854026 C204.495825,87.0703941 203.65,84.8712494 203.65,82.1879026 C203.65,79.5278893 204.501658,77.3404112 206.205,75.6254026 C207.908342,73.9103941 210.054987,73.0529026 212.645,73.0529026 Z M212.645,74.4529026 C210.451656,74.4529026 208.64334,75.1762287 207.22,76.6229026 C205.79666,78.0695765 205.085,79.9362245 205.085,82.2229026 C205.085,84.5095807 205.79666,86.3762287 207.22,87.8229026 C208.64334,89.2695765 210.451656,89.9929026 212.645,89.9929026 C214.861678,89.9929026 216.675826,89.2695765 218.0875,87.8229026 C219.499174,86.3762287 220.205,84.5095807 220.205,82.2229026 C220.205,79.9362245 219.499174,78.0695765 218.0875,76.6229026 C216.675826,75.1762287 214.861678,74.4529026 212.645,74.4529026 Z" id="Welcome-to" fill="#000000"></path>
                <g id="Logo" transform="translate(90.500000, 0.315748)" fill-rule="nonzero" fill="#333333">
                    <path d="M52.9663119,0 C42.5825465,0 34.0204944,8.33433798 26.2782132,15.2568482 C24.0466145,13.2985065 21.5417588,10.8847365 19.6289599,8.60759497 C19.4467886,8.37988081 19.1735316,8.33433798 19.0369032,8.42542364 C18.8547318,8.56205214 18.809189,8.83530912 18.9913603,9.01748044 C20.7675307,11.2035363 23.1357579,13.8450205 25.3673566,16.0766192 C21.222959,19.9933026 14.8925056,24.729757 9.79170856,24.729757 C-0.500971136,24.729757 -0.546513966,10.474851 8.47096647,7.78782402 C8.88085195,7.69673836 8.88085195,7.19576722 8.47096647,7.33239571 C-3.32462663,10.2471369 -2.687027,26.87027 10.0194227,26.87027 C16.0766192,26.87027 21.6328445,22.8169581 27.2346126,18.0349609 C33.2918091,23.5001005 40.9430046,27.9632979 50.780256,27.9632979 C75.7377271,27.9632979 75.0090418,0 52.9663119,0 M50.5980847,25.8227849 C42.719175,25.7772421 35.0679795,22.3159869 28.3731834,17.0785614 C35.9788361,10.474851 43.6755745,2.91474115 52.7385977,2.91474115 C70.409216,2.91474115 70.8646443,25.9594134 50.5980847,25.8227849" id="Shape"></path>
                    <circle id="Oval" cx="13.8450205" cy="5.87502514" r="2.55039851"></circle>
                </g>
                <path d="M17.87,132.608044 C16.1539914,134.016051 13.9760132,134.720044 11.336,134.720044 C9.5759912,134.720044 7.7426762,134.404714 5.836,133.774044 C3.9293238,133.143374 2.21334096,132.21205 0.688,130.980044 L3.592,126.844044 C6.05601232,128.75072 8.6813194,129.704044 11.468,129.704044 C12.3186709,129.704044 12.9933308,129.535379 13.492,129.198044 C13.9906692,128.860709 14.24,128.41338 14.24,127.856044 C14.24,127.298708 13.8953368,126.78538 13.206,126.316044 C12.5166632,125.846708 11.5193399,125.406713 10.214,124.996044 C8.90866014,124.585375 7.91133678,124.233379 7.222,123.940044 C6.53266322,123.646709 5.7480044,123.22138 4.868,122.664044 C3.07865772,121.549372 2.184,119.899388 2.184,117.714044 C2.184,115.5287 3.0639912,113.746718 4.824,112.368044 C6.5840088,110.989371 8.8573194,110.300044 11.644,110.300044 C14.4306806,110.300044 17.2173194,111.238701 20.004,113.116044 L17.54,117.516044 C15.4866564,116.108037 13.4406769,115.404044 11.402,115.404044 C9.36332314,115.404044 8.344,115.961372 8.344,117.076044 C8.344,117.692047 8.66666344,118.176042 9.312,118.528044 C9.95733656,118.880046 11.0279925,119.290708 12.524,119.760044 C14.0200075,120.22938 15.0833302,120.58871 15.714,120.838044 C16.3446698,121.087379 17.0999956,121.476042 17.98,122.004044 C19.6226749,123.001382 20.444,124.666033 20.444,126.998044 C20.444,129.330056 19.5860086,131.200037 17.87,132.608044 Z M38.124,134.368044 L31.304,134.368044 L23.252,110.696044 L30.072,110.696044 L34.692,124.996044 L39.312,110.696044 L45.692,110.696044 L50.312,124.996044 L54.932,110.696044 L61.796,110.696044 L53.744,134.368044 L46.88,134.368044 L42.524,121.476044 L38.124,134.368044 Z M85.636,134.368044 L79.432,134.368044 L79.432,131.508044 C77.7306582,133.649388 75.6260126,134.720044 73.118,134.720044 C70.6099875,134.720044 68.5053419,133.994051 66.804,132.542044 C65.1026582,131.090037 64.252,129.154056 64.252,126.734044 C64.252,124.314032 65.1319912,122.502717 66.892,121.300044 C68.6520088,120.097371 71.0573181,119.496044 74.108,119.496044 L79.036,119.496044 L79.036,119.364044 C79.036,116.841365 77.7013467,115.580044 75.032,115.580044 C73.8879943,115.580044 72.6780064,115.807375 71.402,116.262044 C70.1259936,116.716713 69.0480044,117.281374 68.168,117.956044 L65.22,113.688044 C68.3293489,111.429366 71.8786467,110.300044 75.868,110.300044 C78.7426811,110.300044 81.0893243,111.018704 82.908,112.456044 C84.7266758,113.893385 85.636,116.166695 85.636,119.276044 L85.636,134.368044 Z M78.992,125.348044 L78.992,124.204044 L74.856,124.204044 C72.2159868,124.204044 70.896,125.025369 70.896,126.668044 C70.896,127.518715 71.2113302,128.171375 71.842,128.626044 C72.4726698,129.080713 73.3746608,129.308044 74.548,129.308044 C75.7213392,129.308044 76.7553289,128.948714 77.65,128.230044 C78.5446712,127.511374 78.992,126.550717 78.992,125.348044 Z M104.416,116.504044 C102.450657,116.504044 100.984005,117.200704 100.016,118.594044 C99.0479952,119.987384 98.564,121.828033 98.564,124.116044 L98.564,134.368044 L91.964,134.368044 L91.964,110.696044 L98.564,110.696044 L98.564,113.820044 C99.414671,112.852039 100.477994,112.030714 101.754,111.356044 C103.030006,110.681374 104.327993,110.329378 105.648,110.300044 L105.692,116.504044 L104.416,116.504044 Z M132.084,121.608044 L132.084,134.368044 L125.44,134.368044 L125.44,121.432044 C125.44,119.554701 125.154003,118.176049 124.582,117.296044 C124.009997,116.41604 123.086006,115.976044 121.81,115.976044 C120.533994,115.976044 119.404672,116.452706 118.422,117.406044 C117.439328,118.359382 116.948,119.760035 116.948,121.608044 L116.948,134.368044 L110.348,134.368044 L110.348,110.696044 L116.948,110.696044 L116.948,113.380044 C118.766676,111.326701 120.849322,110.300044 123.196,110.300044 C124.692008,110.300044 126.048661,110.74004 127.266,111.620044 C128.483339,112.500049 129.399997,113.570705 130.016,114.832044 C130.925338,113.394704 132.149992,112.280048 133.69,111.488044 C135.230008,110.69604 136.777326,110.300044 138.332,110.300044 C141.118681,110.300044 143.362658,111.128703 145.064,112.786044 C146.765342,114.443386 147.616,116.841362 147.616,119.980044 L147.616,134.368044 L140.972,134.368044 L140.972,121.432044 C140.972,117.794693 139.637347,115.976044 136.968,115.976044 C135.647993,115.976044 134.504005,116.452706 133.536,117.406044 C132.567995,118.359382 132.084,119.760035 132.084,121.608044 Z M153.24,130.848044 C153.24,129.762705 153.613996,128.846048 154.362,128.098044 C155.110004,127.35004 156.026661,126.976044 157.112,126.976044 C158.197339,126.976044 159.113996,127.35004 159.862,128.098044 C160.610004,128.846048 160.984,129.762705 160.984,130.848044 C160.984,131.933383 160.610004,132.85004 159.862,133.598044 C159.113996,134.346048 158.197339,134.720044 157.112,134.720044 C156.026661,134.720044 155.110004,134.346048 154.362,133.598044 C153.613996,132.85004 153.24,131.933383 153.24,130.848044 Z M178.224,128.868044 C180.424011,128.868044 182.403991,127.768055 184.164,125.568044 L188.08,129.968044 C185.029318,133.13606 181.729351,134.720044 178.18,134.720044 C174.630649,134.720044 171.631346,133.598055 169.182,131.354044 C166.732654,129.110033 165.508,126.176729 165.508,122.554044 C165.508,118.931359 166.747321,115.983389 169.226,113.710044 C171.704679,111.436699 174.645316,110.300044 178.048,110.300044 C179.749342,110.300044 181.472658,110.652041 183.218,111.356044 C184.963342,112.060048 186.495993,113.101371 187.816,114.480044 L184.384,118.968044 C183.62133,118.058706 182.690006,117.354713 181.59,116.856044 C180.489995,116.357375 179.397339,116.108044 178.312,116.108044 C176.581325,116.108044 175.092673,116.672705 173.846,117.802044 C172.599327,118.931383 171.976,120.500701 171.976,122.510044 C171.976,124.519388 172.599327,126.081372 173.846,127.196044 C175.092673,128.310716 176.551992,128.868044 178.224,128.868044 Z M199.38,134.368044 L192.78,134.368044 L192.78,110.696044 L199.38,110.696044 L199.38,134.368044 Z M192.208,104.932044 C192.208,103.846705 192.581996,102.930048 193.33,102.182044 C194.078004,101.43404 194.994661,101.060044 196.08,101.060044 C197.165339,101.060044 198.081996,101.43404 198.83,102.182044 C199.578004,102.930048 199.952,103.846705 199.952,104.932044 C199.952,106.017383 199.578004,106.93404 198.83,107.682044 C198.081996,108.430048 197.165339,108.804044 196.08,108.804044 C194.994661,108.804044 194.078004,108.430048 193.33,107.682044 C192.581996,106.93404 192.208,106.017383 192.208,104.932044 Z M213.804,115.448044 L213.804,126.052044 C213.804,126.961382 214.038664,127.672708 214.508,128.186044 C214.977336,128.69938 215.534664,128.956044 216.18,128.956044 C217.412006,128.956044 218.453329,128.398716 219.304,127.284044 L221.768,131.904044 C219.714656,133.781387 217.551345,134.720044 215.278,134.720044 C213.004655,134.720044 211.083341,133.972052 209.514,132.476044 C207.944659,130.980037 207.16,128.94139 207.16,126.360044 L207.16,115.448044 L204.388,115.448044 L204.388,110.696044 L207.16,110.696044 L207.16,103.612044 L213.804,103.612044 L213.804,110.696044 L219.524,110.696044 L219.524,115.448044 L213.804,115.448044 Z M229.68,143.696044 C227.362655,143.696044 225.177344,142.757387 223.124,140.880044 L226.116,135.996044 C227.230672,137.081383 228.374661,137.624044 229.548,137.624044 C230.164003,137.624044 230.691998,137.323381 231.132,136.722044 C231.572002,136.120708 231.792,135.482714 231.792,134.808044 C231.792,134.133374 228.741364,126.096121 222.64,110.696044 L229.68,110.696044 L235.444,125.436044 L241.208,110.696044 L248.248,110.696044 L237.248,138.592044 C236.602664,140.205386 235.598007,141.459373 234.234,142.354044 C232.869993,143.248715 231.352008,143.696044 229.68,143.696044 Z" id="swarm.city" fill="#333333"></path>
            </g>
        </g>
    </g>
</svg>