<?xml version="1.0" encoding="UTF-8"?>
<svg width="288px" height="267px" viewBox="0 0 288 267" version="1.1" xmlns="http://www.w3.org/2000/svg" xmlns:xlink="http://www.w3.org/1999/xlink">
    <!-- Generator: Sketch 43.1 (39012) - http://www.bohemiancoding.com/sketch -->
    <title>Group</title>
    <desc>Created with Sketch.</desc>
    <defs></defs>
    <g id="Page-1" stroke="none" stroke-width="1" fill="none" fill-rule="evenodd">
        <g id="iPhone-7" transform="translate(-46.000000, -246.000000)">
            <g id="Group" transform="translate(45.579797, 245.725616)">
                <path d="M38.044,103.322903 L35.937,103.322903 L25.549,71.9629026 L15.112,103.322903 L12.956,103.322903 L1.392,69.0719026 L3.695,69.0719026 L14.083,100.872903 L24.471,69.0719026 L26.627,69.0719026 L37.064,100.872903 L47.403,69.0719026 L49.608,69.0719026 L38.044,103.322903 Z M61.8929997,77.7449026 C65.5843515,77.7449026 68.4998223,78.978057 70.6394997,81.4444026 C72.7791771,83.9107483 73.8163334,87.1365494 73.7509997,91.1219026 L51.4559997,91.1219026 C51.586667,94.2252515 52.6319899,96.7323931 54.5919997,98.6434026 C56.5520095,100.554412 59.0183182,101.509903 61.9909997,101.509903 C65.584351,101.509903 68.4589889,100.333914 70.6149997,97.9819026 L71.7909997,99.3049026 C69.2756538,102.01625 65.9763535,103.371903 61.8929997,103.371903 C58.2669816,103.371903 55.2861781,102.171415 52.9504997,99.7704026 C50.6148214,97.3693906 49.4469997,94.3069213 49.4469997,90.5829026 C49.4469997,86.8262172 50.622988,83.7474146 52.9749997,81.3464026 C55.3270115,78.9453906 58.2996484,77.7449026 61.8929997,77.7449026 Z M51.5049997,89.3089026 L71.8889997,89.3089026 C71.6929987,86.3688879 70.6966754,84.0169115 68.8999997,82.2529026 C67.1033241,80.4888938 64.7676808,79.6069026 61.8929997,79.6069026 C59.0183187,79.6069026 56.6336759,80.4970604 54.7389997,82.2774026 C52.8443236,84.0577449 51.7663344,86.4015548 51.5049997,89.3089026 Z M82.6549994,103.322903 L80.5969994,103.322903 L80.5969994,66.9649026 L82.6549994,66.9649026 L82.6549994,103.322903 Z M102.142999,77.7449026 C105.834351,77.7449026 108.872321,78.937224 111.256999,81.3219026 L110.080999,82.7919026 C107.859655,80.7338923 105.230014,79.7049026 102.191999,79.7049026 C99.1213171,79.7049026 96.5978424,80.7175592 94.6214991,82.7429026 C92.6451559,84.7682461 91.6569991,87.3652201 91.6569991,90.5339026 C91.6569991,93.7679188 92.6451559,96.3975592 94.6214991,98.4229026 C96.5978424,100.448246 99.1213171,101.460903 102.191999,101.460903 C105.720017,101.460903 108.496656,100.268581 110.521999,97.8839026 L111.746999,99.2069026 C109.394987,101.983583 106.193686,103.371903 102.142999,103.371903 C98.516981,103.371903 95.5280109,102.171415 93.1759991,99.7704026 C90.8239874,97.3693906 89.6479991,94.3069213 89.6479991,90.5829026 C89.6479991,86.858884 90.8239874,83.7882481 93.1759991,81.3709026 C95.5280109,78.9535572 98.516981,77.7449026 102.142999,77.7449026 Z M127.559999,77.7449026 C131.218684,77.7449026 134.232154,78.9453906 136.600499,81.3464026 C138.968844,83.7474146 140.152999,86.809884 140.152999,90.5339026 C140.152999,94.2905881 138.968844,97.3693906 136.600499,99.7704026 C134.232154,102.171415 131.218684,103.371903 127.559999,103.371903 C123.901314,103.371903 120.887844,102.171415 118.519499,99.7704026 C116.151154,97.3693906 114.966999,94.2905881 114.966999,90.5339026 C114.966999,86.809884 116.15932,83.7474146 118.543999,81.3464026 C120.928677,78.9453906 123.933981,77.7449026 127.559999,77.7449026 Z M127.559999,79.7049026 C124.489317,79.7049026 121.957675,80.7175592 119.964999,82.7429026 C117.972322,84.7682461 116.975999,87.3815533 116.975999,90.5829026 C116.975999,93.784252 117.972322,96.3975592 119.964999,98.4229026 C121.957675,100.448246 124.489317,101.460903 127.559999,101.460903 C130.663348,101.460903 133.203156,100.448246 135.179499,98.4229026 C137.155842,96.3975592 138.143999,93.784252 138.143999,90.5829026 C138.143999,87.3815533 137.155842,84.7682461 135.179499,82.7429026 C133.203156,80.7175592 130.663348,79.7049026 127.559999,79.7049026 Z M179.044999,77.7449026 C182.083014,77.7449026 184.45949,78.6268938 186.174499,80.3909026 C187.889507,82.1549115 188.746999,84.604887 188.746999,87.7409026 L188.746999,103.322903 L186.737999,103.322903 L186.737999,88.1329026 C186.737999,85.5195562 186.019339,83.47791 184.581999,82.0079026 C183.144658,80.5378953 181.135678,79.8029026 178.554999,79.8029026 C175.516983,79.8682363 173.140507,80.8808928 171.425499,82.8409026 C169.71049,84.8009124 168.852999,87.4632191 168.852999,90.8279026 L168.852999,103.322903 L166.843999,103.322903 L166.843999,88.1329026 C166.843999,85.5195562 166.117173,83.47791 164.663499,82.0079026 C163.209825,80.5378953 161.209011,79.8029026 158.660999,79.8029026 C155.622983,79.8682363 153.238341,80.8890594 151.506999,82.8654026 C149.775657,84.8417459 148.909999,87.495886 148.909999,90.8279026 L148.909999,103.322903 L146.900999,103.322903 L146.900999,77.7939026 L148.909999,77.7939026 L148.909999,84.5069026 C150.608674,80.0968806 154.038639,77.8429031 159.199999,77.7449026 C161.748011,77.7449026 163.838657,78.3900629 165.471999,79.6804026 C167.10534,80.9707424 168.150663,82.7918909 168.607999,85.1439026 C170.208673,80.3092118 173.687638,77.8429031 179.044999,77.7449026 Z M207.107998,77.7449026 C210.79935,77.7449026 213.714821,78.978057 215.854498,81.4444026 C217.994176,83.9107483 219.031332,87.1365494 218.965998,91.1219026 L196.670998,91.1219026 C196.801666,94.2252515 197.846988,96.7323931 199.806998,98.6434026 C201.767008,100.554412 204.233317,101.509903 207.205998,101.509903 C210.79935,101.509903 213.673988,100.333914 215.829998,97.9819026 L217.005998,99.3049026 C214.490652,102.01625 211.191352,103.371903 207.107998,103.371903 C203.48198,103.371903 200.501177,102.171415 198.165498,99.7704026 C195.82982,97.3693906 194.661998,94.3069213 194.661998,90.5829026 C194.661998,86.8262172 195.837987,83.7474146 198.189998,81.3464026 C200.54201,78.9453906 203.514647,77.7449026 207.107998,77.7449026 Z M196.719998,89.3089026 L217.103998,89.3089026 C216.907997,86.3688879 215.911674,84.0169115 214.114998,82.2529026 C212.318323,80.4888938 209.982679,79.6069026 207.107998,79.6069026 C204.233317,79.6069026 201.848674,80.4970604 199.953998,82.2774026 C198.059322,84.0577449 196.981333,86.4015548 196.719998,89.3089026 Z M250.346998,99.8929026 L251.130998,101.558903 C249.399656,102.767575 247.61934,103.371903 245.789998,103.371903 C243.960655,103.404569 242.539669,102.816575 241.526998,101.607903 C240.514326,100.39923 240.007998,98.6189144 240.007998,96.2669026 L240.007998,80.1949026 L236.283998,80.1949026 L236.283998,78.4309026 L240.007998,78.4309026 L240.007998,72.1099026 L241.967998,72.1099026 L241.967998,78.4309026 L250.640998,78.4309026 L250.640998,80.1949026 L241.967998,80.1949026 L241.967998,96.0219026 C241.967998,97.8185783 242.310994,99.1660648 242.996998,100.064403 C243.683001,100.96274 244.695658,101.395569 246.034998,101.362903 C247.505005,101.362903 248.942324,100.872908 250.346998,99.8929026 Z M266.061997,77.7449026 C269.720682,77.7449026 272.734152,78.9453906 275.102497,81.3464026 C277.470843,83.7474146 278.654997,86.809884 278.654997,90.5339026 C278.654997,94.2905881 277.470843,97.3693906 275.102497,99.7704026 C272.734152,102.171415 269.720682,103.371903 266.061997,103.371903 C262.403312,103.371903 259.389843,102.171415 257.021497,99.7704026 C254.653152,97.3693906 253.468997,94.2905881 253.468997,90.5339026 C253.468997,86.809884 254.661319,83.7474146 257.045997,81.3464026 C259.430676,78.9453906 262.435979,77.7449026 266.061997,77.7449026 Z M266.061997,79.7049026 C262.991315,79.7049026 260.459674,80.7175592 258.466997,82.7429026 C256.474321,84.7682461 255.477997,87.3815533 255.477997,90.5829026 C255.477997,93.784252 256.474321,96.3975592 258.466997,98.4229026 C260.459674,100.448246 262.991315,101.460903 266.061997,101.460903 C269.165346,101.460903 271.705154,100.448246 273.681497,98.4229026 C275.657841,96.3975592 276.645997,93.784252 276.645997,90.5829026 C276.645997,87.3815533 275.657841,84.7682461 273.681497,82.7429026 C271.705154,80.7175592 269.165346,79.7049026 266.061997,79.7049026 Z" id="Welcome-to" fill="#000000"></path>
                <g id="Logo" transform="translate(0.500000, 0.315748)" fill-rule="nonzero" fill="#333333">
                    <path d="M52.9663119,0 C42.5825465,0 34.0204944,8.33433798 26.2782132,15.2568482 C24.0466145,13.2985065 21.5417588,10.8847365 19.6289599,8.60759497 C19.4467886,8.37988081 19.1735316,8.33433798 19.0369032,8.42542364 C18.8547318,8.56205214 18.809189,8.83530912 18.9913603,9.01748044 C20.7675307,11.2035363 23.1357579,13.8450205 25.3673566,16.0766192 C21.222959,19.9933026 14.8925056,24.729757 9.79170856,24.729757 C-0.500971136,24.729757 -0.546513966,10.474851 8.47096647,7.78782402 C8.88085195,7.69673836 8.88085195,7.19576722 8.47096647,7.33239571 C-3.32462663,10.2471369 -2.687027,26.87027 10.0194227,26.87027 C16.0766192,26.87027 21.6328445,22.8169581 27.2346126,18.0349609 C33.2918091,23.5001005 40.9430046,27.9632979 50.780256,27.9632979 C75.7377271,27.9632979 75.0090418,0 52.9663119,0 M50.5980847,25.8227849 C42.719175,25.7772421 35.0679795,22.3159869 28.3731834,17.0785614 C35.9788361,10.474851 43.6755745,2.91474115 52.7385977,2.91474115 C70.409216,2.91474115 70.8646443,25.9594134 50.5980847,25.8227849" id="Shape"></path>
                    <circle id="Oval" cx="13.8450205" cy="5.87502514" r="2.55039851"></circle>
                </g>
                <path d="M31.9825,173.655845 C28.9014846,176.183858 24.9910237,177.447845 20.251,177.447845 C17.0909842,177.447845 13.7993505,176.881684 10.376,175.749345 C6.95264955,174.617006 3.87168036,172.944856 1.133,170.732845 L6.347,163.306845 C10.7710221,166.730195 15.4846417,168.441845 20.488,168.441845 C22.015341,168.441845 23.2266622,168.139015 24.122,167.533345 C25.0173378,166.927675 25.465,166.124517 25.465,165.123845 C25.465,164.123173 24.8461729,163.201516 23.6085,162.358845 C22.3708271,161.516174 20.5801784,160.726182 18.2365,159.988845 C15.8928216,159.251508 14.1021729,158.619514 12.8645,158.092845 C11.6268271,157.566176 10.2180079,156.802517 8.638,155.801845 C5.42531727,153.800502 3.819,150.838031 3.819,146.914345 C3.819,142.990659 5.3989842,139.791191 8.559,137.315845 C11.7190158,134.840499 15.8006417,133.602845 20.804,133.602845 C25.8073584,133.602845 30.8106417,135.288161 35.814,138.658845 L31.39,146.558845 C27.7033149,144.030832 24.0298516,142.766845 20.3695,142.766845 C16.7091484,142.766845 14.879,143.767502 14.879,145.768845 C14.879,146.874851 15.4583275,147.743842 16.617,148.375845 C17.7756725,149.007848 19.6979866,149.745174 22.384,150.587845 C25.0700134,151.430516 26.979161,152.075676 28.1115,152.523345 C29.243839,152.971014 30.5999921,153.66884 32.18,154.616845 C35.1293481,156.407521 36.604,159.396324 36.604,163.583345 C36.604,167.770366 35.0635154,171.127832 31.9825,173.655845 Z M68.10525,176.815845 L55.86025,176.815845 L41.40325,134.313845 L53.64825,134.313845 L61.94325,159.988845 L70.23825,134.313845 L81.69325,134.313845 L89.98825,159.988845 L98.28325,134.313845 L110.60725,134.313845 L96.15025,176.815845 L83.82625,176.815845 L76.00525,153.668845 L68.10525,176.815845 Z M153.1685,176.815845 L142.0295,176.815845 L142.0295,171.680845 C138.974818,175.525531 135.196023,177.447845 130.693,177.447845 C126.189978,177.447845 122.411182,176.144358 119.3565,173.537345 C116.301818,170.930332 114.7745,167.454367 114.7745,163.109345 C114.7745,158.764323 116.354484,155.512189 119.5145,153.352845 C122.674516,151.193501 126.993139,150.113845 132.4705,150.113845 L141.3185,150.113845 L141.3185,149.876845 C141.3185,145.347489 138.922191,143.082845 134.1295,143.082845 C132.07549,143.082845 129.903011,143.491008 127.612,144.307345 C125.320989,145.123682 123.385508,146.137506 121.8055,147.348845 L116.5125,139.685845 C122.095195,135.630491 128.467798,133.602845 135.6305,133.602845 C140.791859,133.602845 145.00515,134.893165 148.2705,137.473845 C151.53585,140.054525 153.1685,144.13615 153.1685,149.718845 L153.1685,176.815845 Z M141.2395,160.620845 L141.2395,158.566845 L133.8135,158.566845 C129.073476,158.566845 126.7035,160.041497 126.7035,162.990845 C126.7035,164.518186 127.269661,165.690008 128.402,166.506345 C129.534339,167.322682 131.153823,167.730845 133.2605,167.730845 C135.367177,167.730845 137.223659,167.085685 138.83,165.795345 C140.436341,164.505005 141.2395,162.780189 141.2395,160.620845 Z M186.64475,144.741845 C183.116066,144.741845 180.482759,145.992666 178.74475,148.494345 C177.006741,150.996024 176.13775,154.300824 176.13775,158.408845 L176.13775,176.815845 L164.28775,176.815845 L164.28775,134.313845 L176.13775,134.313845 L176.13775,139.922845 C177.665091,138.184836 179.574239,136.710184 181.86525,135.498845 C184.156262,134.287506 186.486738,133.655512 188.85675,133.602845 L188.93575,144.741845 L186.64475,144.741845 Z M236.079,153.905845 L236.079,176.815845 L224.15,176.815845 L224.15,153.589845 C224.15,150.219161 223.636505,147.743853 222.6095,146.163845 C221.582495,144.583837 219.923512,143.793845 217.6325,143.793845 C215.341489,143.793845 213.313842,144.64967 211.5495,146.361345 C209.785158,148.07302 208.903,150.587828 208.903,153.905845 L208.903,176.815845 L197.053,176.815845 L197.053,134.313845 L208.903,134.313845 L208.903,139.132845 C212.16835,135.44616 215.907646,133.602845 220.121,133.602845 C222.807013,133.602845 225.242822,134.392837 227.4285,135.972845 C229.614178,137.552853 231.259995,139.475167 232.366,141.739845 C233.998675,139.159165 236.197486,137.157852 238.9625,135.735845 C241.727514,134.313838 244.505653,133.602845 247.297,133.602845 C252.300358,133.602845 256.329318,135.090663 259.384,138.066345 C262.438682,141.042027 263.966,145.347483 263.966,150.982845 L263.966,176.815845 L252.037,176.815845 L252.037,153.589845 C252.037,147.059146 249.640691,143.793845 244.848,143.793845 C242.477988,143.793845 240.424009,144.64967 238.686,146.361345 C236.947991,148.07302 236.079,150.587828 236.079,153.905845 Z M273.82125,170.495845 C273.82125,168.547169 274.492743,166.901352 275.83575,165.558345 C277.178757,164.215338 278.824574,163.543845 280.77325,163.543845 C282.721926,163.543845 284.367743,164.215338 285.71075,165.558345 C287.053757,166.901352 287.72525,168.547169 287.72525,170.495845 C287.72525,172.444521 287.053757,174.090338 285.71075,175.433345 C284.367743,176.776352 282.721926,177.447845 280.77325,177.447845 C278.824574,177.447845 277.178757,176.776352 275.83575,175.433345 C274.492743,174.090338 273.82125,172.444521 273.82125,170.495845 Z M24.991,239.940845 C28.9410198,239.940845 32.4959842,237.965865 35.656,234.015845 L42.687,241.915845 C37.2096393,247.603873 31.2846985,250.447845 24.912,250.447845 C18.5393015,250.447845 13.1541887,248.433365 8.7565,244.404345 C4.35881135,240.375325 2.16,235.108711 2.16,228.604345 C2.16,222.099979 4.38514442,216.807032 8.8355,212.725345 C13.2858556,208.643658 18.5656361,206.602845 24.675,206.602845 C27.7296819,206.602845 30.8238177,207.234839 33.9575,208.498845 C37.0911823,209.762851 39.8429882,211.632499 42.213,214.107845 L36.051,222.165845 C34.6816598,220.53317 33.0095099,219.269183 31.0345,218.373845 C29.0594901,217.478507 27.0976764,217.030845 25.149,217.030845 C22.0416511,217.030845 19.3688445,218.044668 17.1305,220.072345 C14.8921555,222.100022 13.773,224.91766 13.773,228.525345 C13.773,232.13303 14.8921555,234.937502 17.1305,236.938845 C19.3688445,238.940188 21.988985,239.940845 24.991,239.940845 Z M62.73325,249.815845 L50.88325,249.815845 L50.88325,207.313845 L62.73325,207.313845 L62.73325,249.815845 Z M49.85625,196.964845 C49.85625,195.016169 50.5277433,193.370352 51.87075,192.027345 C53.2137567,190.684338 54.8595736,190.012845 56.80825,190.012845 C58.7569264,190.012845 60.4027433,190.684338 61.74575,192.027345 C63.0887567,193.370352 63.76025,195.016169 63.76025,196.964845 C63.76025,198.913521 63.0887567,200.559338 61.74575,201.902345 C60.4027433,203.245352 58.7569264,203.916845 56.80825,203.916845 C54.8595736,203.916845 53.2137567,203.245352 51.87075,201.902345 C50.5277433,200.559338 49.85625,198.913521 49.85625,196.964845 Z M88.3885,215.845845 L88.3885,234.884845 C88.3885,236.51752 88.8098292,237.794674 89.6525,238.716345 C90.4951709,239.638016 91.4958276,240.098845 92.6545,240.098845 C94.8665111,240.098845 96.7361591,239.098188 98.2635,237.096845 L102.6875,245.391845 C99.0008149,248.762529 95.1166871,250.447845 91.035,250.447845 C86.953313,250.447845 83.5036808,249.104858 80.686,246.418845 C77.8683193,243.732832 76.4595,240.072535 76.4595,235.437845 L76.4595,215.845845 L71.4825,215.845845 L71.4825,207.313845 L76.4595,207.313845 L76.4595,194.594845 L88.3885,194.594845 L88.3885,207.313845 L98.6585,207.313845 L98.6585,215.845845 L88.3885,215.845845 Z M116.65075,266.563845 C112.490063,266.563845 108.566435,264.878529 104.87975,261.507845 L110.25175,252.738845 C112.253093,254.687521 114.307073,255.661845 116.41375,255.661845 C117.519756,255.661845 118.467746,255.122017 119.25775,254.042345 C120.047754,252.962673 120.44275,251.817184 120.44275,250.605845 C120.44275,249.394506 114.965471,234.963983 104.01075,207.313845 L116.65075,207.313845 L126.99975,233.778845 L137.34875,207.313845 L149.98875,207.313845 L130.23875,257.399845 C129.080078,260.296526 127.276262,262.548004 124.82725,264.154345 C122.378238,265.760686 119.652765,266.563845 116.65075,266.563845 Z" id="swarm.-city" fill="#333333"></path>
            </g>
        </g>
    </g>
</svg>