<?xml version="1.0" encoding="UTF-8"?>
<svg width="375px" height="667px" viewBox="0 0 375 667" version="1.1" xmlns="http://www.w3.org/2000/svg" xmlns:xlink="http://www.w3.org/1999/xlink" style="background: #F4F3F4;">
    <!-- Generator: Sketch 43.1 (39012) - http://www.bohemiancoding.com/sketch -->
    <title>Screen3</title>
    <desc>Created with Sketch.</desc>
    <defs>
        <rect id="path-1" x="19" y="506.5" width="337" height="60"></rect>
        <filter x="-1.0%" y="-4.2%" width="102.1%" height="111.7%" filterUnits="objectBoundingBox" id="filter-2">
            <feOffset dx="0" dy="1" in="SourceAlpha" result="shadowOffsetOuter1"></feOffset>
            <feGaussianBlur stdDeviation="1" in="shadowOffsetOuter1" result="shadowBlurOuter1"></feGaussianBlur>
            <feColorMatrix values="0 0 0 0 0   0 0 0 0 0   0 0 0 0 0  0 0 0 0.25 0" type="matrix" in="shadowBlurOuter1"></feColorMatrix>
        </filter>
        <rect id="path-3" x="19" y="426.5" width="337" height="60"></rect>
        <filter x="-1.0%" y="-4.2%" width="102.1%" height="111.7%" filterUnits="objectBoundingBox" id="filter-4">
            <feOffset dx="0" dy="1" in="SourceAlpha" result="shadowOffsetOuter1"></feOffset>
            <feGaussianBlur stdDeviation="1" in="shadowOffsetOuter1" result="shadowBlurOuter1"></feGaussianBlur>
            <feColorMatrix values="0 0 0 0 0   0 0 0 0 0   0 0 0 0 0  0 0 0 0.25 0" type="matrix" in="shadowBlurOuter1"></feColorMatrix>
        </filter>
        <rect id="path-5" x="0" y="567" width="19" height="19"></rect>
        <rect id="path-6" x="19" y="587.5" width="337" height="60"></rect>
        <filter x="-1.0%" y="-4.2%" width="102.1%" height="111.7%" filterUnits="objectBoundingBox" id="filter-7">
            <feOffset dx="0" dy="1" in="SourceAlpha" result="shadowOffsetOuter1"></feOffset>
            <feGaussianBlur stdDeviation="1" in="shadowOffsetOuter1" result="shadowBlurOuter1"></feGaussianBlur>
            <feColorMatrix values="0 0 0 0 0   0 0 0 0 0   0 0 0 0 0  0 0 0 0.25 0" type="matrix" in="shadowBlurOuter1"></feColorMatrix>
        </filter>
        <rect id="path-8" x="0" y="648" width="19" height="19"></rect>
        <rect id="path-9" x="0" y="487" width="19" height="19"></rect>
        <rect id="path-10" x="356" y="26" width="19" height="19"></rect>
    </defs>
    <g id="Sketches" stroke="none" stroke-width="1" fill="none" fill-rule="evenodd">
        <g id="Screen3">
            <g id="Rectangle" opacity="0.2">
                <use fill="black" fill-opacity="1" filter="url(#filter-2)" xlink:href="#path-1"></use>
                <use fill="#9B9B9B" fill-rule="evenodd" xlink:href="#path-1"></use>
            </g>
            <g id="Rectangle" opacity="0.2">
                <use fill="black" fill-opacity="1" filter="url(#filter-4)" xlink:href="#path-3"></use>
                <use fill="#9B9B9B" fill-rule="evenodd" xlink:href="#path-3"></use>
            </g>
            <text id="login-/-restore" font-family="Montserrat-Regular, Montserrat" font-size="18" font-weight="normal" letter-spacing="0.101250067" fill="#333333">
                <tspan x="124" y="540.606612">login / restore</tspan>
            </text>
            <text id="create-account" font-family="Montserrat-Regular, Montserrat" font-size="18" font-weight="normal" letter-spacing="0.101250067" fill="#333333">
                <tspan x="119" y="462.5">create account</tspan>
            </text>
            <g id="SmallLogo" transform="translate(120.000000, 156.000000)" fill="#333333">
                <g id="Group" transform="translate(0.500000, 0.857585)">
                    <path d="M102.091204,0.221505411 C82.2270538,0.221505411 65.8478423,15.3790961 51.0368532,27.9690076 C46.7678034,24.4073879 41.9760128,20.0174846 38.3168273,15.8760663 C37.9683334,15.4619245 37.4455927,15.3790961 37.1842223,15.5447529 C36.8357284,15.793238 36.7486049,16.2902082 37.0970988,16.6215216 C40.4949139,20.5972831 45.0253341,25.4013283 49.2943839,29.4599181 C41.3661486,36.5831575 29.2559869,45.1973074 19.4981588,45.1973074 C-0.191744302,45.1973074 -0.278867767,19.2720293 16.9715783,14.3851558 C17.7556895,14.219499 17.7556895,13.308387 16.9715783,13.5568721 C-5.59339914,18.8578875 -4.37367063,49.0902406 19.9337762,49.0902406 C31.521197,49.0902406 42.1502598,41.7185161 52.866446,33.0215378 C64.4538669,42.9609416 79.090609,51.0781213 97.9092775,51.0781213 C145.652936,51.0781213 144.258961,0.221505411 102.091204,0.221505411 M97.5607836,47.1851882 C82.4884242,47.1023598 67.851682,40.8074041 55.0445326,31.2821422 C69.5941513,19.2720293 84.3180169,5.52252075 101.655586,5.52252075 C135.459491,5.52252075 136.330726,47.4336733 97.5607836,47.1851882" id="Shape" fill-rule="nonzero"></path>
                    <ellipse id="Oval" fill-rule="nonzero" cx="27.2521472" cy="10.9063645" rx="4.87891405" ry="4.63838842"></ellipse>
                </g>
            </g>
            <g id="Rectangle-2" opacity="0.1">
                <use fill="#4990E2" fill-rule="evenodd" xlink:href="#path-5"></use>
                <rect stroke="#4990E2" stroke-width="1" x="0.5" y="567.5" width="18" height="18"></rect>
            </g>
            <g id="Rectangle" opacity="0.2">
                <use fill="black" fill-opacity="1" filter="url(#filter-7)" xlink:href="#path-6"></use>
                <use fill="#9B9B9B" fill-rule="evenodd" xlink:href="#path-6"></use>
            </g>
            <text id="login-with-meta-mask" font-family="Montserrat-Regular, Montserrat" font-size="18" font-weight="normal" letter-spacing="0.101250067" fill="#333333">
                <tspan x="92" y="624">login with meta mask</tspan>
            </text>
            <g id="Rectangle-2" opacity="0.1">
                <use fill="#4990E2" fill-rule="evenodd" xlink:href="#path-8"></use>
                <rect stroke="#4990E2" stroke-width="1" x="0.5" y="648.5" width="18" height="18"></rect>
            </g>
            <g id="Rectangle-2" opacity="0.1">
                <use fill="#4990E2" fill-rule="evenodd" xlink:href="#path-9"></use>
                <rect stroke="#4990E2" stroke-width="1" x="0.5" y="487.5" width="18" height="18"></rect>
            </g>
            <g id="Rectangle-2" opacity="0.1">
                <use fill="#4990E2" fill-rule="evenodd" xlink:href="#path-10"></use>
                <rect stroke="#4990E2" stroke-width="1" x="356.5" y="26.5" width="18" height="18"></rect>
            </g>
            <text id="swarm.city" font-family="Montserrat-Regular, Montserrat" font-size="43" font-weight="normal" letter-spacing="-2.20000005" fill="#333333">
                <tspan x="82" y="262">swarm.</tspan>
                <tspan x="227.513" y="262" font-family="Montserrat-Light, Montserrat" font-weight="300">city</tspan>
            </text>
            <rect id="Rectangle-4" fill="#000000" x="0" y="-0.0700207436" width="375" height="25.0700207"></rect>
        </g>
    </g>
</svg>