<?xml version="1.0" encoding="UTF-8"?>
<svg width="375px" height="667px" viewBox="0 0 375 667" version="1.1" xmlns="http://www.w3.org/2000/svg" xmlns:xlink="http://www.w3.org/1999/xlink" style="background: #F4F3F4;">
    <!-- Generator: Sketch 43.1 (39012) - http://www.bohemiancoding.com/sketch -->
    <title>Screen20</title>
    <desc>Created with Sketch.</desc>
    <defs>
        <rect id="path-1" x="19" y="588" width="337" height="60"></rect>
        <filter x="-1.0%" y="-4.2%" width="102.1%" height="111.7%" filterUnits="objectBoundingBox" id="filter-2">
            <feOffset dx="0" dy="1" in="SourceAlpha" result="shadowOffsetOuter1"></feOffset>
            <feGaussianBlur stdDeviation="1" in="shadowOffsetOuter1" result="shadowBlurOuter1"></feGaussianBlur>
            <feColorMatrix values="0 0 0 0 0   0 0 0 0 0   0 0 0 0 0  0 0 0 0.25 0" type="matrix" in="shadowBlurOuter1"></feColorMatrix>
        </filter>
        <rect id="path-3" x="0" y="648" width="19" height="19"></rect>
        <rect id="path-4" x="356" y="26" width="19" height="19"></rect>
        <rect id="path-5" x="0" y="26" width="57" height="57"></rect>
    </defs>
    <g id="Sketches" stroke="none" stroke-width="1" fill="none" fill-rule="evenodd">
        <g id="Screen20">
            <g id="Rectangle" opacity="0.2">
                <use fill="black" fill-opacity="1" filter="url(#filter-2)" xlink:href="#path-1"></use>
                <use fill="#9B9B9B" fill-rule="evenodd" xlink:href="#path-1"></use>
            </g>
            <text id="login" font-family="Montserrat-Regular, Montserrat" font-size="18" font-weight="normal" letter-spacing="0.101250067" fill="#333333">
                <tspan x="164.5" y="624">login</tspan>
            </text>
            <g id="Group" transform="translate(145.500000, 83.663188)" fill-rule="nonzero" fill="#333333">
                <path d="M64.0359728,0.138937675 C51.5763276,0.138937675 41.3025851,9.64642736 32.0124988,17.5433587 C29.3347681,15.3093584 26.3291519,12.5558231 24.0339541,9.95814833 C23.8153639,9.69838086 23.4874785,9.64642736 23.3235358,9.75033435 C23.1049455,9.90619484 23.0502979,10.2179158 23.2688882,10.4257298 C25.4001433,12.9194976 28.2418167,15.9328003 30.9195475,18.4785216 C25.946619,22.9465222 18.3506072,28.3496858 12.2300798,28.3496858 C-0.120270233,28.3496858 -0.1749178,12.0882417 10.6453004,9.02298541 C11.1371285,8.91907842 11.1371285,8.34758997 10.6453004,8.50345046 C-3.50841935,11.8284742 -2.74335342,30.7915 12.5033176,30.7915 C19.7714439,30.7915 26.4384471,26.1676389 33.1600977,20.7125219 C40.4282241,26.9469414 49.6090152,32.0383839 61.4128896,32.0383839 C91.359756,32.0383839 90.4853949,0.138937675 64.0359728,0.138937675 M61.1942993,29.5965697 C51.7402703,29.5446162 42.5594792,25.5961505 34.5262869,19.6214985 C43.6524305,12.0882417 52.8878692,3.46396139 63.7627349,3.46396139 C84.9659907,3.46396139 85.5124664,29.7524301 61.1942993,29.5965697" id="Shape"></path>
                <ellipse id="Oval" cx="17.0937132" cy="6.8409386" rx="3.06026372" ry="2.90939575"></ellipse>
            </g>
            <g id="Rectangle-2" opacity="0.1">
                <use fill="#4990E2" fill-rule="evenodd" xlink:href="#path-3"></use>
                <rect stroke="#4990E2" stroke-width="1" x="0.5" y="648.5" width="18" height="18"></rect>
            </g>
            <g id="Rectangle-2" opacity="0.1">
                <use fill="#4990E2" fill-rule="evenodd" xlink:href="#path-4"></use>
                <rect stroke="#4990E2" stroke-width="1" x="356.5" y="26.5" width="18" height="18"></rect>
            </g>
            <g id="Rectangle-2" opacity="0.1">
                <use fill="#4990E2" fill-rule="evenodd" xlink:href="#path-5"></use>
                <rect stroke="#4990E2" stroke-width="1" x="0.5" y="26.5" width="56" height="56"></rect>
            </g>
            <path d="M20.5,437 L357.5,437" id="Line" stroke="#979797" stroke-width="2" stroke-linecap="square"></path>
            <text id="password" font-family="Montserrat-Regular, Montserrat" font-size="14" font-weight="normal" fill="#333333">
                <tspan x="18" y="428">password</tspan>
            </text>
            <g id="BigUser" transform="translate(127.283067, 170.279170)" stroke="#979797" fill="#D8D8D8">
                <circle id="Oval-2" cx="60" cy="60" r="60"></circle>
            </g>
            <rect id="Rectangle-4" fill="#000000" x="0" y="-0.0700207436" width="375" height="25.0700207"></rect>
        </g>
    </g>
</svg>