<?xml version="1.0" encoding="UTF-8"?>
<svg width="375px" height="667px" viewBox="0 0 375 667" version="1.1" xmlns="http://www.w3.org/2000/svg" xmlns:xlink="http://www.w3.org/1999/xlink" style="background: #F4F3F4;">
    <!-- Generator: Sketch 43.1 (39012) - http://www.bohemiancoding.com/sketch -->
    <title>Start</title>
    <desc>Created with Sketch.</desc>
    <defs></defs>
    <g id="Sketches" stroke="none" stroke-width="1" fill="none" fill-rule="evenodd">
        <g id="Start">
            <rect id="Rectangle-4" fill="#000000" x="0" y="-0.0700207436" width="375" height="25.0700207"></rect>
            <circle id="Oval-3" fill="#F0DA72" cx="187.5" cy="187.578631" r="91"></circle>
            <g id="SmallLogo" transform="translate(139.832739, 168.864818)" fill="#333333">
                <g id="Group" transform="translate(0.351852, 0.598691)">
                    <path d="M71.8419582,0.154635853 C57.8634823,0.154635853 46.3373705,10.7363501 35.9148226,19.5255336 C32.9106765,17.0391198 29.5386757,13.9744704 26.9636933,11.0832916 C26.7184569,10.7941737 26.3506022,10.7363501 26.1666749,10.8519973 C25.9214385,11.025468 25.8601294,11.3724095 26.1053658,11.6037038 C28.4964209,14.3792354 31.6844944,17.7330028 34.6886405,20.5663579 C29.109512,25.5391854 20.5875464,31.5528373 13.7209266,31.5528373 C-0.134931176,31.5528373 -0.196240281,13.4540582 11.9429625,10.0424672 C12.4947445,9.92682008 12.4947445,9.29076076 11.9429625,9.46423148 C-3.93609569,13.1649403 -3.07776822,34.2705453 14.0274721,34.2705453 C22.1815831,34.2705453 29.6612939,29.1242471 37.2023138,23.0527717 C45.3564248,29.9916007 55.6563545,35.6583111 68.8991212,35.6583111 C102.496511,35.6583111 101.515565,0.154635853 71.8419582,0.154635853 M68.6538848,32.9406031 C58.0474096,32.8827795 47.7474799,28.4881878 38.7350415,21.8384766 C48.973662,13.4540582 59.3349008,3.85534467 71.5354127,3.85534467 C95.3233455,3.85534467 95.9364366,33.1140738 68.6538848,32.9406031" id="Shape" fill-rule="nonzero"></path>
                    <ellipse id="Oval" fill-rule="nonzero" cx="19.1774369" cy="7.61387707" rx="3.43330989" ry="3.23812022"></ellipse>
                </g>
            </g>
            <text id="#pioneer" font-family="Montserrat-Bold, Montserrat" font-size="30" font-weight="bold" line-spacing="36" letter-spacing="-1.53488362" fill="#353435">
                <tspan x="124" y="387">#pioneer</tspan>
            </text>
            <text id="#needaride" font-family="Montserrat-Bold, Montserrat" font-size="30" font-weight="bold" line-spacing="36" letter-spacing="-1.53488362" fill="#353435">
                <tspan x="107" y="477">#needaride</tspan>
            </text>
            <text id="#swarmbnb" font-family="Montserrat-Bold, Montserrat" font-size="30" font-weight="bold" line-spacing="36" letter-spacing="-1.53488362" fill="#353435">
                <tspan x="102.5" y="557">#swarmbnb</tspan>
            </text>
            <text id="25-deals-done" font-family="Montserrat-Regular, Montserrat" font-size="11" font-weight="normal" fill="#353435">
                <tspan x="149" y="409">25 deals done</tspan>
            </text>
            <text id="25-deals-done" font-family="Montserrat-Regular, Montserrat" font-size="11" font-weight="normal" fill="#353435">
                <tspan x="149" y="498">25 deals done</tspan>
            </text>
            <text id="25-deals-done" font-family="Montserrat-Regular, Montserrat" font-size="11" font-weight="normal" fill="#353435">
                <tspan x="149" y="577">25 deals done</tspan>
            </text>
        </g>
    </g>
</svg>